<?xml version="1.0" encoding="UTF-8" standalone="no"?>
<!DOCTYPE svg PUBLIC "-//W3C//DTD SVG 1.1//EN"
 "http://www.w3.org/Graphics/SVG/1.1/DTD/svg11.dtd">
<!-- Generated by graphviz version 12.2.1 (20241206.2353)
 -->
<!-- Title: Grouped Workers Pages: 1 -->
<svg width="965pt" height="834pt"
 viewBox="0.00 0.00 964.80 833.90" xmlns="http://www.w3.org/2000/svg" xmlns:xlink="http://www.w3.org/1999/xlink">
<g id="graph0" class="graph" transform="scale(1 1) rotate(0) translate(144 689.9)">
<title>Grouped Workers</title>
<polygon fill="white" stroke="none" points="-144,144 -144,-689.9 820.8,-689.9 820.8,144 -144,144"/>
<text text-anchor="middle" x="338.4" y="-9.25" font-family="Sans-Serif" font-size="15.00" fill="#2d3436">Grouped Workers</text>
<!-- 2ff1b683e73143c79053d1da14ec0660 -->
<g id="node1" class="node">
<title>2ff1b683e73143c79053d1da14ec0660</title>
<image xlink:href="C:\Users\c12177.adm\.env\Lib\site-packages\resources/aws/network\elastic-load-balancing.png" width="100.8px" height="100.8px" preserveAspectRatio="xMinYMin meet" x="288" y="-527.9"/>
<text text-anchor="middle" x="338.4" y="-413.25" font-family="Sans-Serif" font-size="13.00" fill="#2d3436">lb</text>
</g>
<!-- 10220d8c5f8a4cca8e644d0a0210b4bc -->
<g id="node2" class="node">
<title>10220d8c5f8a4cca8e644d0a0210b4bc</title>
<image xlink:href="C:\Users\c12177.adm\.env\Lib\site-packages\resources/aws/compute\ec2.png" width="100.8px" height="100.8px" preserveAspectRatio="xMinYMin meet" x="-2.84217e-14" y="-337.1"/>
<text text-anchor="middle" x="50.4" y="-222.45" font-family="Sans-Serif" font-size="13.00" fill="#2d3436">worker1</text>
</g>
<!-- 2ff1b683e73143c79053d1da14ec0660&#45;&gt;10220d8c5f8a4cca8e644d0a0210b4bc -->
<g id="edge1" class="edge">
<title>2ff1b683e73143c79053d1da14ec0660&#45;&gt;10220d8c5f8a4cca8e644d0a0210b4bc</title>
<path fill="none" stroke="#7b8894" d="M288.23,-500.5C205.72,-500.5 50.4,-500.5 50.4,-500.5 50.4,-500.5 50.4,-366.45 50.4,-366.45"/>
<polygon fill="#7b8894" stroke="#7b8894" points="53.9,-366.45 50.4,-356.45 46.9,-366.45 53.9,-366.45"/>
</g>
<!-- 2e1c180c23394aef928dae391e92e8e5 -->
<g id="node3" class="node">
<title>2e1c180c23394aef928dae391e92e8e5</title>
<image xlink:href="C:\Users\c12177.adm\.env\Lib\site-packages\resources/aws/compute\ec2.png" width="100.8px" height="100.8px" preserveAspectRatio="xMinYMin meet" x="144" y="-337.1"/>
<text text-anchor="middle" x="194.4" y="-222.45" font-family="Sans-Serif" font-size="13.00" fill="#2d3436">worker2</text>
</g>
<!-- 2ff1b683e73143c79053d1da14ec0660&#45;&gt;2e1c180c23394aef928dae391e92e8e5 -->
<g id="edge2" class="edge">
<title>2ff1b683e73143c79053d1da14ec0660&#45;&gt;2e1c180c23394aef928dae391e92e8e5</title>
<path fill="none" stroke="#7b8894" d="M288.04,-454.5C246.51,-454.5 194.4,-454.5 194.4,-454.5 194.4,-454.5 194.4,-366.46 194.4,-366.46"/>
<polygon fill="#7b8894" stroke="#7b8894" points="197.9,-366.46 194.4,-356.46 190.9,-366.46 197.9,-366.46"/>
</g>
<!-- 51ab75582a18457a80edff7d635e0b12 -->
<g id="node4" class="node">
<title>51ab75582a18457a80edff7d635e0b12</title>
<image xlink:href="C:\Users\c12177.adm\.env\Lib\site-packages\resources/aws/compute\ec2.png" width="100.8px" height="100.8px" preserveAspectRatio="xMinYMin meet" x="288" y="-337.1"/>
<text text-anchor="middle" x="338.4" y="-222.45" font-family="Sans-Serif" font-size="13.00" fill="#2d3436">worker3</text>
</g>
<!-- 2ff1b683e73143c79053d1da14ec0660&#45;&gt;51ab75582a18457a80edff7d635e0b12 -->
<g id="edge3" class="edge">
<title>2ff1b683e73143c79053d1da14ec0660&#45;&gt;51ab75582a18457a80edff7d635e0b12</title>
<path fill="none" stroke="#7b8894" d="M338.4,-409.16C338.4,-409.16 338.4,-366.4 338.4,-366.4"/>
<polygon fill="#7b8894" stroke="#7b8894" points="341.9,-366.4 338.4,-356.4 334.9,-366.4 341.9,-366.4"/>
</g>
<!-- 58965fd3fc174724beab8db7a0d869f5 -->
<g id="node5" class="node">
<title>58965fd3fc174724beab8db7a0d869f5</title>
<image xlink:href="C:\Users\c12177.adm\.env\Lib\site-packages\resources/aws/compute\ec2.png" width="100.8px" height="100.8px" preserveAspectRatio="xMinYMin meet" x="432" y="-337.1"/>
<text text-anchor="middle" x="482.4" y="-222.45" font-family="Sans-Serif" font-size="13.00" fill="#2d3436">worker4</text>
</g>
<!-- 2ff1b683e73143c79053d1da14ec0660&#45;&gt;58965fd3fc174724beab8db7a0d869f5 -->
<g id="edge4" class="edge">
<title>2ff1b683e73143c79053d1da14ec0660&#45;&gt;58965fd3fc174724beab8db7a0d869f5</title>
<path fill="none" stroke="#7b8894" d="M388.76,-454.5C430.29,-454.5 482.4,-454.5 482.4,-454.5 482.4,-454.5 482.4,-366.46 482.4,-366.46"/>
<polygon fill="#7b8894" stroke="#7b8894" points="485.9,-366.46 482.4,-356.46 478.9,-366.46 485.9,-366.46"/>
</g>
<!-- f0865a5113104b1e9889a41b87517db8 -->
<g id="node6" class="node">
<title>f0865a5113104b1e9889a41b87517db8</title>
<image xlink:href="C:\Users\c12177.adm\.env\Lib\site-packages\resources/aws/compute\ec2.png" width="100.8px" height="100.8px" preserveAspectRatio="xMinYMin meet" x="576" y="-337.1"/>
<text text-anchor="middle" x="626.4" y="-222.45" font-family="Sans-Serif" font-size="13.00" fill="#2d3436">worker5</text>
</g>
<!-- 2ff1b683e73143c79053d1da14ec0660&#45;&gt;f0865a5113104b1e9889a41b87517db8 -->
<g id="edge5" class="edge">
<title>2ff1b683e73143c79053d1da14ec0660&#45;&gt;f0865a5113104b1e9889a41b87517db8</title>
<path fill="none" stroke="#7b8894" d="M388.57,-500.5C471.08,-500.5 626.4,-500.5 626.4,-500.5 626.4,-500.5 626.4,-366.45 626.4,-366.45"/>
<polygon fill="#7b8894" stroke="#7b8894" points="629.9,-366.45 626.4,-356.45 622.9,-366.45 629.9,-366.45"/>
</g>
<!-- 3256f597c3bd47288d83021a168a19e8 -->
<g id="node7" class="node">
<title>3256f597c3bd47288d83021a168a19e8</title>
<image xlink:href="C:\Users\c12177.adm\.env\Lib\site-packages\resources/aws/database\rds.png" width="100.8px" height="100.8px" preserveAspectRatio="xMinYMin meet" x="288" y="-146.3"/>
<text text-anchor="middle" x="338.4" y="-31.65" font-family="Sans-Serif" font-size="13.00" fill="#2d3436">events</text>
</g>
<!-- 10220d8c5f8a4cca8e644d0a0210b4bc&#45;&gt;3256f597c3bd47288d83021a168a19e8 -->
<g id="edge6" class="edge">
<title>10220d8c5f8a4cca8e644d0a0210b4bc&#45;&gt;3256f597c3bd47288d83021a168a19e8</title>
<path fill="none" stroke="#7b8894" d="M50.4,-218.36C50.4,-156 50.4,-73.5 50.4,-73.5 50.4,-73.5 276.72,-73.5 276.72,-73.5"/>
<polygon fill="#7b8894" stroke="#7b8894" points="276.72,-77 286.72,-73.5 276.72,-70 276.72,-77"/>
</g>
<!-- 2e1c180c23394aef928dae391e92e8e5&#45;&gt;3256f597c3bd47288d83021a168a19e8 -->
<g id="edge7" class="edge">
<title>2e1c180c23394aef928dae391e92e8e5&#45;&gt;3256f597c3bd47288d83021a168a19e8</title>
<path fill="none" stroke="#7b8894" d="M194.4,-218.77C194.4,-172.09 194.4,-118.5 194.4,-118.5 194.4,-118.5 276.52,-118.5 276.52,-118.5"/>
<polygon fill="#7b8894" stroke="#7b8894" points="276.52,-122 286.52,-118.5 276.52,-115 276.52,-122"/>
</g>
<!-- 51ab75582a18457a80edff7d635e0b12&#45;&gt;3256f597c3bd47288d83021a168a19e8 -->
<g id="edge8" class="edge">
<title>51ab75582a18457a80edff7d635e0b12&#45;&gt;3256f597c3bd47288d83021a168a19e8</title>
<path fill="none" stroke="#7b8894" d="M338.4,-218.36C338.4,-218.36 338.4,-175.6 338.4,-175.6"/>
<polygon fill="#7b8894" stroke="#7b8894" points="341.9,-175.6 338.4,-165.6 334.9,-175.6 341.9,-175.6"/>
</g>
<!-- 58965fd3fc174724beab8db7a0d869f5&#45;&gt;3256f597c3bd47288d83021a168a19e8 -->
<g id="edge9" class="edge">
<title>58965fd3fc174724beab8db7a0d869f5&#45;&gt;3256f597c3bd47288d83021a168a19e8</title>
<path fill="none" stroke="#7b8894" d="M482.4,-218.77C482.4,-172.09 482.4,-118.5 482.4,-118.5 482.4,-118.5 400.28,-118.5 400.28,-118.5"/>
<polygon fill="#7b8894" stroke="#7b8894" points="400.28,-115 390.28,-118.5 400.28,-122 400.28,-115"/>
</g>
<!-- f0865a5113104b1e9889a41b87517db8&#45;&gt;3256f597c3bd47288d83021a168a19e8 -->
<g id="edge10" class="edge">
<title>f0865a5113104b1e9889a41b87517db8&#45;&gt;3256f597c3bd47288d83021a168a19e8</title>
<path fill="none" stroke="#7b8894" d="M626.4,-218.36C626.4,-156 626.4,-73.5 626.4,-73.5 626.4,-73.5 400.08,-73.5 400.08,-73.5"/>
<polygon fill="#7b8894" stroke="#7b8894" points="400.08,-70 390.08,-73.5 400.08,-77 400.08,-70"/>
</g>
</g>
</svg>
